<?xml version="1.0" encoding="UTF-8"?>
<svg id="Calque_1" data-name="Calque 1" xmlns="http://www.w3.org/2000/svg" viewBox="0 0 1080 1080">
  <defs>
    <style>
      .cls-1 {
        fill: #f1dec9;
      }
    </style>
  </defs>
  <path class="cls-1" d="m916.16,885.36c-7.4,18.94-21.55,25.17-41.38,25.09-118.51-.48-237.02-.23-355.54-.24-25.55,0-38.23-12.64-38.24-38.27-.02-104.84-.03-209.69,0-314.53,0-19.75,8.66-32.36,25.13-36.43,3.49-.86,7.25-.85,10.89-.85,48.38-.05,96.76-.03,145.15-.03,2.67,0,5.33,0,8.31,0,2.79-10.63-3.56-23.59,7.58-31.43,9.55-6.72,21.02-4.14,31.4-3.28,22.28,1.85,16,20.24,17.71,34.71h7.83c46.92,0,93.84.54,140.74-.26,19.77-.33,33.44,6.33,40.41,25.19v340.33Z"/>
  <path class="cls-1" d="m355.12,410.12c0-7.71-.16-14.3.03-20.88.39-13.31,6.14-18.9,19.49-19.07,6.11-.08,12.23-.17,18.33.05,11.18.39,17.01,6.32,17.22,17.43.13,7.07.02,14.15.02,22.47,3.09,0,5.89,0,8.69,0,48.4,0,96.8-.02,145.2,0,21.64.01,34.93,11.62,35.94,32.94.85,18.05.19,36.17.15,54.26,0,.91-.49,1.82-.95,3.39-2.68,0-5.31,0-7.94,0-24.93,0-49.88.56-74.79-.14-29.03-.81-54.89,20.52-54.91,54.78-.05,106.59-.05,213.18.02,319.77,0,12.19,3.12,23.62,11.05,34.4-2.58.29-4.33.67-6.08.67-88.97.03-177.95.07-266.92,0-20.88-.02-34.43-13.67-34.43-34.39-.02-143.75-.02-287.5,0-431.25,0-20.85,13.44-34.37,34.32-34.4,48.89-.08,97.77-.03,146.66-.03,2.65,0,5.29,0,8.92,0Z"/>
  <path class="cls-1" d="m418.33,350.22c-8.06-20.09-15.43-38.6-22.92-57.05-2.38-5.87-5.62-10.88-13.07-10.92-7.43-.04-10.81,4.8-13.18,10.74-7.25,18.23-14.39,36.52-21.79,55.33-11.55-6.69-16.94-18.12-19.32-31.44-4.44-24.89,1.76-48.65,9.47-71.75,7.08-21.19,16.54-41.59,25.02-62.3,3.51-8.57,9.48-14.44,19.15-14.55,9.64-.12,15.58,5.62,19.61,13.98,14.75,30.56,27.95,61.72,34.41,95.21,3.63,18.8,5.56,37.98-3.92,55.81-3.31,6.22-8.85,11.25-13.48,16.96Z"/>
  <path class="cls-1" d="m663.48,463.67c-13.37-8.52-18.71-22.15-20.04-37.86-1.9-22.33,2.82-43.85,10.1-64.59,7.57-21.56,16.8-42.55,25.52-63.7,3.39-8.24,9.19-13.73,18.77-13.86,9.85-.14,15.6,5.36,19.64,13.72,15.29,31.67,28.84,63.98,35.08,98.82,3.18,17.71,4.4,35.63-4.56,52.16-3.36,6.19-8.84,11.23-14.61,18.33-3.09-9.92-5.03-17.6-7.87-24.94-4.56-11.8-9.71-23.38-14.64-35.03-2.36-5.58-6.24-9.65-12.57-9.6-6.31.05-10.21,4.1-12.45,9.75-7.41,18.75-14.79,37.51-22.38,56.79Z"/>
</svg>