<?xml version="1.0" encoding="UTF-8"?>
<svg id="Calque_1" data-name="Calque 1" xmlns="http://www.w3.org/2000/svg" viewBox="0 0 1080 1080">
  <defs>
    <style>
      .cls-1 {
        fill: #f1dec9;
      }
    </style>
  </defs>
  <path class="cls-1" d="m148.6,753.99c5.98-17.95,17.21-32,32.45-42.88,2.32-1.66,5.81-1.68,8.75-2.46.22,2.84,1.19,5.86.55,8.49-4.83,19.72,3.49,34.75,16.85,47.89,18.33,18.03,40.95,29.04,64.52,38.23,45.5,17.73,92.98,27.13,141.22,33.62,55.72,7.49,111.68,9.19,167.71,7.16,69.07-2.5,137.35-11.12,203.54-32.11,26.48-8.4,52.39-18.52,74.73-35.46,9-6.82,17.09-15.26,24.14-24.12,8.15-10.26,9.67-22.6,6.49-35.51-.63-2.56.56-5.56.9-8.36,2.74.72,6.07.69,8.1,2.3,5.77,4.56,11.47,9.38,16.39,14.82,23.29,25.71,21.59,55.1-3.57,78.88-20.77,19.63-45.52,32.4-71.68,42.6-53.12,20.7-108.61,31.46-165,38.57-58.29,7.35-116.79,9.18-175.37,7.25-79.29-2.61-157.64-12.28-233.56-36.62-26.42-8.47-52.01-19.03-75.32-34.46-18.78-12.43-34.73-27.21-41.85-49.47v-18.35Z"/>
  <path class="cls-1" d="m545.31,401.76c9.52,73.49,29.54,143.13,76.23,202.71,25.77,32.89,58.23,57.36,96.21,74.66,12.64,5.76,14.16,11.68,3.1,20.27-9.86,7.66-21.29,14.09-33,18.43-28.48,10.56-58.3,16.36-88.62,17.62-34.56,1.44-69.23,2.53-103.76,1.28-38.69-1.4-76.98-7.43-112.99-22.73-9.14-3.88-17.82-9.93-25.16-16.67-8.5-7.79-7.04-12.86,3.37-17.64,35.15-16.16,66.11-37.86,91.45-67.42,29.8-34.76,50.53-74.48,63.05-118.18,8.64-30.18,14.59-61.13,21.88-92.34-13.86-3.53-24.77-9.08-29.06-21.26-2.58-7.34-3.7-16.03-2.56-23.67,2.38-15.79,18.76-27.85,34.88-27.59,16.35.26,31.64,12.69,34.68,28.2,3.91,19.9-4.93,33.21-29.71,44.33Z"/>
  <path class="cls-1" d="m539.77,812.31c-65.89-1.33-131.2-6.44-195.39-21.74-28.22-6.73-56.03-14.97-80.79-30.7-7.2-4.57-13.9-10.38-19.62-16.72-10.33-11.46-10.63-24.59-1.75-36.99,9.23-12.86,22.9-19.92,36.55-26.8,1.51-.76,4.58.02,5.99,1.2.91.76.64,3.76.01,5.41-7.15,18.75-4.81,27.74,11.4,39.97,20.73,15.64,45,23.3,69.69,29.53,66.4,16.75,134.03,20.68,202.19,18.75,51.24-1.45,101.95-6.81,151.57-20.2,22.63-6.11,44.77-13.56,63.88-27.82,2.84-2.12,5.45-4.6,7.87-7.2,9.28-9.97,10.39-18.7,4.69-31.28-1-2.21-.56-5.08-.79-7.64,2.78.15,6.11-.65,8.24.6,8.95,5.27,18.34,10.23,26.09,17,19.75,17.28,18.87,36.82-1.3,53.63-16.52,13.76-35.93,21.94-55.99,28.67-42.61,14.3-86.59,22.13-131.24,25.86-33.71,2.82-67.53,4.36-101.31,6.46Z"/>
  <path class="cls-1" d="m540.19,186.4c28.7.21,51.89,23.54,51.71,52.04-.18,28.31-24.25,52.17-52.27,51.83-28.52-.35-51.69-23.87-51.58-52.37.11-28.62,23.48-51.71,52.15-51.5Zm-16.71,23.14c-8.31.09-15.65,7.55-15.34,15.61.3,7.85,7.53,14.98,15.34,15.11,8.34.14,15.34-6.9,15.35-15.46,0-8.76-6.62-15.35-15.34-15.26Z"/>
</svg>