<?xml version="1.0" encoding="UTF-8"?>
<svg id="Calque_1" data-name="Calque 1" xmlns="http://www.w3.org/2000/svg" viewBox="0 0 1080 1080">
  <defs>
    <style>
      .cls-1 {
        fill: #f1dec9;
      }
    </style>
  </defs>
  <path class="cls-1" d="m923.38,746.58c-11.54,33.48-39.19,50.23-68.5,64.57-46.9,22.94-97.23,34.73-148.43,43.12-70.36,11.53-141.21,14.9-212.37,11.94-75.36-3.13-149.78-12.69-221.82-36.1-29.18-9.48-57.42-21.35-82.1-40.16-6.12-4.66-12.2-9.68-17.15-15.51-22.17-26.16-21.3-46.03-.76-69.02,23.26-26.03,52.94-43.6,82.98-60.48,1.4-.79,4.31-.17,5.88.81,34.31,21.39,72.51,30.76,111.9,36.63,58.78,8.75,117.81,8.71,176.84,4.14,59.72-4.62,118.57-14.27,174.8-35.97,23.31-9,45.43-20.21,64.11-37.42,15.93-14.68,26.23-31.77,25.58-56.65,12,7.63,23.26,13.71,33.31,21.37,41.67,31.77,65.29,74.23,72.89,125.87.64,4.35,1.88,8.61,2.84,12.92v29.94Zm-265.43,65.14c62.6-2.17,116.42-13.45,167.36-36.42,15-6.77,28.89-16.53,42.17-26.42,11.28-8.4,12.22-16.84,6.6-29.79-7.81-17.99-21.05-30.04-39.97-35.41-20.98-5.95-42.02-4.22-62.76,1.06-50.9,12.96-96.61,36.81-138.38,68.2-10.24,7.7-19.32,17.29-27.61,27.13-7.04,8.36-4.75,16.03,4.75,21.69,3.37,2,7.16,3.82,10.97,4.46,14.41,2.43,28.91,4.34,36.86,5.5Z"/>
  <path class="cls-1" d="m495.56,670.39c-64.73-.9-113.01-3.04-160.19-15.2-31.61-8.15-62.15-19.03-85.09-43.79-16.02-17.3-25.64-38.08-17.54-61.43,4.38-12.63,13.68-24.32,23.01-34.34,25.62-27.48,57.89-45.96,90.21-64.49,17.77-10.19,33.02-12.1,53.02-3.82,39.26,16.25,81.39,23.03,123.79,25.2,34.81,1.78,69.8,2.61,104.6,1.18,40.83-1.67,81.18-8.46,120.32-20.77,5.83-1.83,8.93-.66,12.45,3.99,24.24,32.03,35.41,68.22,34.32,108.14-.34,12.59-7.67,22.41-16.25,31.05-16.33,16.42-36.6,26.61-57.72,35.04-42.32,16.9-86.5,26.66-131.67,31.44-36.4,3.85-72.97,6.14-93.27,7.8Zm92-55.62c37.88-2.24,74.28-9.63,109.43-23.11,16.55-6.35,32.66-13.63,45.78-26.06,7.7-7.3,9.05-13.16,5.01-22.83-4.79-11.47-12.58-20.16-24.08-25.37-18.29-8.29-37.01-6.51-55.62-2.01-29.55,7.14-56.86,19.9-82.12,36.51-14.07,9.25-27.51,19.82-39.8,31.32-12.67,11.86-9.77,21.67,7,25.95,11.22,2.86,22.93,3.8,34.42,5.6Z"/>
  <path class="cls-1" d="m593.37,456.11c-66.66-.29-129.18-5.77-189.39-27.08-19.56-6.92-38.23-15.63-54.39-29.01-15.36-12.72-23.09-27.86-21.13-48.88,2.63-28.14,9.83-54.21,25.78-77.62,18.34-26.93,44.17-43.36,75.01-52.31,36.33-10.53,73.27-9.99,110.32-4.97,77.81,10.53,150.64,36.1,219.24,73.88,22.72,12.52,44.41,26.7,62.04,46.25,16.99,18.85,16.78,37.68-.87,56.15-17.01,17.8-38.65,28-61.2,36.13-34.54,12.45-70.33,19.75-106.9,22.98-20.59,1.82-41.22,3.18-58.51,4.49Zm84.8-48.64c11.08-1.67,23.04-2.72,34.63-5.38,21.71-4.99,42.63-12.3,59.87-27.19,10.16-8.78,15.76-20.97-4.09-28.37-2.09-.78-4.1-1.81-6.23-2.44-28.16-8.38-56.69-10.55-85.57-4.53-23.03,4.8-36.79,19.16-37.17,40.42-.26,14.25.44,20.68,17.75,24.42,6.54,1.41,13.26,1.99,20.82,3.07Z"/>
</svg>