<?xml version="1.0" encoding="UTF-8"?>
<svg id="Calque_1" data-name="Calque 1" xmlns="http://www.w3.org/2000/svg" viewBox="0 0 1080 1080">
  <defs>
    <style>
      .cls-1 {
        fill: #f1dec9;
      }
    </style>
  </defs>
  <path class="cls-1" d="m148.52,382.58c2.57-14.46,3.94-29.26,7.91-43.33,28.75-101.85,95.5-165.36,198.87-185.05,122.41-23.31,238.23,47.37,279.53,161.13,3.25,8.95,5.79,18.16,8.96,28.23-83.36,2.59-154.15,32.14-211.69,90.53-57.32,58.16-85.81,129.14-87.38,211.17-43.33-9.9-80.72-28.99-112.84-57.98-42.18-38.07-68.35-85.35-79.27-141.08-1.55-7.92-2.74-15.91-4.09-23.87,0-13.25,0-26.5,0-39.75Zm119.39,193.33c1.69-1.81,3.55-3.39,4.93-5.33,27.2-38.14,54.37-76.29,81.37-114.58,1.44-2.04,1.26-5.22,1.83-7.87-2.55.95-5.63,1.28-7.56,2.95-16.19,13.99-32.17,28.23-48.21,42.4-18.9,16.7-37.73,33.48-56.75,50.05-4.32,3.76-5.59,6.76-.63,10.97,6.98,5.93,13.64,12.25,20.48,18.34,1.11.99,2.49,1.7,4.54,3.07Zm175.39-220.91c2.77-1.94,4.5-2.93,5.97-4.22,35.49-31.32,70.93-62.71,106.46-93.99,3.7-3.26,4.1-6.02.32-9.37-6.27-5.57-12.31-11.42-18.68-16.88-7.33-6.28-7.46-6.16-13.25,1.98-26.39,37.09-52.78,74.19-79.15,111.29-1.32,1.86-2.91,3.72-3.51,5.83-.36,1.27.97,3.02,1.83,5.37Zm-111.51,33.87c.55-.24,2.66-1.17,4.77-2.09-1.69-1.83-3.04-4.62-5.12-5.36-44.69-15.83-89.48-31.37-134.19-47.14-5.42-1.91-7.56.26-8.62,5.01-1.87,8.41-3.36,16.92-5.67,25.21-1.82,6.55.34,8.52,6.76,9.13,21.49,2.06,42.92,4.69,64.38,7.01,25.25,2.73,50.52,5.36,77.68,8.23Zm51.12-53.63c-.49-2.82-.78-4.57-1.09-6.32-3.36-18.72-6.72-37.44-10.08-56.16-4.7-26.21-9.47-52.41-14.04-78.64-1.09-6.27-3.45-8.94-10.2-6.5-7.61,2.75-15.47,4.85-23.29,6.95-6.07,1.63-7.86,4.59-4.87,10.52,2.96,5.88,5.3,12.07,7.91,18.13,15.95,37.04,31.85,74.1,47.96,111.06.92,2.11,3.55,3.47,5.38,5.18.9-1.63,1.8-3.27,2.33-4.23Zm16.37,94.03c15.82-.11,28.66-12.95,28.69-28.7.04-15.39-13.33-28.68-28.85-28.68-15.38,0-28.76,13.44-28.72,28.84.05,15.58,13.27,28.65,28.87,28.54Z"/>
  <path class="cls-1" d="m364.41,646.81c2.01-169.98,137.8-283.55,284.83-283.04,166.87.57,284.43,138.07,282.21,288.39-2.26,152.95-131.15,279.15-284.63,278.08-147-1.03-281.54-118.03-282.41-283.42Zm424.16-202.49l1.66-2.3c-2.22-1.18-4.47-2.31-6.66-3.55-9.29-5.22-18.65-10.33-27.82-15.78-5.77-3.43-8.57-1.38-10.92,4.23-20.75,49.62-41.69,99.16-62.36,148.81-.96,2.31.1,5.45.21,8.21,2.68-1.18,6.38-1.61,7.88-3.65,31.85-43.48,63.47-87.15,95.09-130.8,1.16-1.59,1.96-3.45,2.92-5.18Zm-173.37,136.09c-3.81-9-7.37-17.39-10.91-25.8-17.81-42.31-35.73-84.58-53.32-126.98-2.68-6.47-5.53-8.32-11.84-4.45-7.99,4.9-16.44,9.06-24.54,13.8-8.88,5.2-9.05,6.46-3.18,14.57,30.43,41.99,60.87,83.97,91.32,125.94,1.49,2.05,2.85,4.33,4.77,5.9,1.13.92,3.48,1.25,4.84.72,1.29-.51,1.99-2.49,2.86-3.7Zm280.8,66.18c0-5.34-.04-10.69.01-16.03.06-6.18-2.75-8.86-9.02-7.92-5.02.76-10.09,1.22-15.14,1.81-42.64,5-85.29,9.98-127.92,15.02-6.81.8-13.63,1.64-20.36,2.92-1.51.29-3.62,2.48-3.68,3.87-.05,1.37,1.88,3.45,3.41,4.11,2.26.97,4.93,1.04,7.45,1.33,15.66,1.75,31.32,3.39,46.98,5.17,36.86,4.18,73.71,8.4,110.56,12.65,4.75.55,7.45-1.43,7.64-6.13.23-5.59.05-11.19.06-16.79Zm-280.89,65.98c-1.13-1.21-2.84-3.95-3.64-3.71-2.39.72-5.06,2.14-6.49,4.11-31.74,43.54-63.29,87.21-94.99,130.78-3.79,5.21-2.85,8.62,2.59,11.61,8.46,4.63,16.71,9.63,25.2,14.18,8.7,4.67,9.68,4.23,13.44-4.69,20.48-48.61,40.93-97.22,61.38-145.84.78-1.86,1.47-3.77,2.5-6.44Zm-215.89-68.45c0,3.12,0,4.65,0,6.18-.03,20.85-.09,20.41,20.23,17.94,39.34-4.79,78.75-9.03,118.12-13.52,10.85-1.24,21.73-2.34,32.52-4.01,2.21-.34,4.08-2.92,6.11-4.47-2.08-1.51-3.95-3.7-6.28-4.38-3.35-.99-7.04-.84-10.57-1.26-49.94-5.95-99.9-11.85-149.82-17.96-7.04-.86-9.92,1.65-9.8,8.59.08,4.83-.37,9.66-.52,12.9Zm287.05,63.9c-6.02,1.62-5.53,5.16-3.9,9.04,21.06,50.08,42.17,100.14,63.17,150.24,2.04,4.87,4.94,6.1,9.51,3.59,7.57-4.15,15.28-8.08,22.68-12.5,12.89-7.7,12.83-7.84,3.94-20.12-29.85-41.21-59.71-82.42-89.61-123.59-1.74-2.4-3.9-4.49-5.79-6.65Zm-38.69-93.69c-18.04.17-32.6,15.02-32.12,32.78.47,17.7,14.9,32.01,32.32,32.07,17.5.06,32.75-15.16,32.72-32.64-.03-17.68-15.04-32.37-32.92-32.2Z"/>
</svg>